# xmcd
#
# Track frame offsets:
#	150
#	23798
#	39142
#	59558
#	67334
#	91438
#	109166
#	123918
#	137798
#	156366
#	176478
#
# Disc length: 2622 seconds
#
# Revision: 0
# Processed by: cddbd v1.5.2PL0 Copyright (c) Steve Scherf et al.
# Submitted via: dBpowerAMP V4.0
#
DISCID=990a3c0b
DTITLE=Mike Wells - Keeping The Focus - Disc 6
DYEAR=1900
DGENRE=
TTITLE0=KTF - 06-01
TTITLE1=KTF - 06-02
TTITLE2=KTF - 06-03
TTITLE3=KTF - 06-04
TTITLE4=KTF - 06-05
TTITLE5=KTF - 06-06
TTITLE6=KTF - 06-07
TTITLE7=KTF - 06-08
TTITLE8=KTF - 06-09
TTITLE9=KTF - 06-10
TTITLE10=KTF - 06-11
EXTD=Download for free at http://gracehead.com
EXTT0=
EXTT1=
EXTT2=
EXTT3=
EXTT4=
EXTT5=
EXTT6=
EXTT7=
EXTT8=
EXTT9=
EXTT10=
PLAYORDER=
